<svg xmlns="http://www.w3.org/2000/svg" width="21" height="19" fill="none" viewBox="0 0 21 19">
  <path fill="#000" fill-rule="evenodd" d="M10.5 19C7.928 18.43 0 13.965 0 5.937a6.01 6.01 0 0 1 1.101-3.471A5.841 5.841 0 0 1 3.99.305 5.736 5.736 0 0 1 7.573.27 5.836 5.836 0 0 1 10.5 2.375 5.836 5.836 0 0 1 13.427.27a5.736 5.736 0 0 1 3.584.035 5.842 5.842 0 0 1 2.888 2.16A6.01 6.01 0 0 1 21 5.939C21 13.964 13.072 18.43 10.5 19Zm0-2.375c3.64-1.104 8.167-5.706 8.167-10.688a3.6 3.6 0 0 0-1.026-2.519 3.469 3.469 0 0 0-2.474-1.043c-1.522 0-3.078.99-4.667 2.969-1.589-1.98-3.145-2.969-4.667-2.969a3.47 3.47 0 0 0-2.475 1.043 3.595 3.595 0 0 0-1.025 2.52c0 4.981 4.527 9.583 8.167 10.687Z" clip-rule="evenodd"/>
</svg>
